<svg width="46" height="46" viewBox="0 0 46 46" fill="none" xmlns="http://www.w3.org/2000/svg">
<g id="apple--os-system-apple">
<g id="apple--os-system-apple_2">
<path id="Vector" d="M33.4538 24.6114C33.4568 22.877 34.0118 21.1886 35.0382 19.7905C36.0647 18.3924 37.5094 17.3572 39.1631 16.8348C38.5224 15.6545 37.6398 14.6226 36.5733 13.8066C35.5067 12.9906 34.2799 12.4087 32.9731 12.099C31.6662 11.7894 30.3088 11.7588 28.9894 12.0095C27.67 12.2601 26.4183 12.7862 25.3161 13.5535C24.8173 13.8415 24.2514 13.9931 23.6755 13.9931C23.0995 13.9931 22.5336 13.8415 22.0348 13.5535C20.8417 12.7968 19.5037 12.2978 18.1065 12.0884C16.7093 11.8791 15.2838 11.964 13.9213 12.3379C12.5589 12.7117 11.2896 13.3661 10.1949 14.2592C9.10012 15.1522 8.20411 16.2643 7.56428 17.5239C5.7364 20.8902 5.11136 24.7794 5.79239 28.549C6.34538 33.7262 8.58164 38.5792 12.1581 42.3634C13.3371 43.4818 14.8749 44.1452 16.4975 44.2352C18.1201 44.3253 19.722 43.8364 21.0176 42.8556C21.7632 42.3039 22.666 42.0062 23.5934 42.0062C24.5208 42.0062 25.4236 42.3039 26.1692 42.8556C27.4125 43.8597 28.9715 44.3913 30.5694 44.3552C32.1673 44.319 33.7006 43.7181 34.8976 42.6584C37.5988 39.9316 39.5245 36.5335 40.4757 32.8147C38.5046 32.5422 36.7018 31.5571 35.4082 30.0456C34.1143 28.534 33.419 26.6008 33.4538 24.6114Z" stroke="black" stroke-linecap="round" stroke-linejoin="round"/>
<path id="Vector_2" d="M26.8912 6.56479L31.8131 1.64286" stroke="black" stroke-linecap="round" stroke-linejoin="round"/>
</g>
</g>
</svg>
